<svg width="10" height="10" viewBox="0 0 10 10" fill="none" xmlns="http://www.w3.org/2000/svg">
<path d="M3.4375 4.21878H6.5625C6.73516 4.21878 6.875 4.07894 6.875 3.90629V3.59379C6.875 3.42113 6.73516 3.28129 6.5625 3.28129H3.4375C3.26484 3.28129 3.125 3.42113 3.125 3.59379V3.90629C3.125 4.07894 3.26484 4.21878 3.4375 4.21878ZM3.125 5.78127C3.125 5.95393 3.26484 6.09377 3.4375 6.09377H6.5625C6.73516 6.09377 6.875 5.95393 6.875 5.78127V5.46878C6.875 5.29612 6.73516 5.15628 6.5625 5.15628H3.4375C3.26484 5.15628 3.125 5.29612 3.125 5.46878V5.78127ZM5 8.14708C4.6793 8.14708 4.35859 8.04825 4.08477 7.8504L0 4.89964V9.0625C0 9.58028 0.419727 10 0.9375 10H9.0625C9.58027 10 10 9.58028 10 9.0625V4.89964L5.91523 7.8504C5.64141 8.04806 5.3207 8.14708 5 8.14708ZM9.64082 3.18266C9.46797 3.04711 9.3041 2.91957 9.0625 2.73715V1.87505C9.0625 1.35728 8.64277 0.937555 8.125 0.937555H6.61035C6.55098 0.894586 6.4957 0.854352 6.43379 0.80943C6.10547 0.569783 5.45313 -0.00677563 5 6.02608e-05C4.54687 -0.00677563 3.89473 0.569783 3.56621 0.80943C3.5043 0.854352 3.44902 0.894586 3.38965 0.937555H1.875C1.35723 0.937555 0.9375 1.35728 0.9375 1.87505V2.73715C0.695898 2.91938 0.532031 3.04711 0.35918 3.18266C0.247297 3.27034 0.156819 3.38232 0.0945925 3.51012C0.0323658 3.63792 1.9254e-05 3.7782 0 3.92035L0 4.12836L1.875 5.48284V1.87505H8.125V5.48284L10 4.12836V3.92035C10 3.63246 9.86758 3.36039 9.64082 3.18266V3.18266Z" fill="#888C9B"/>
</svg>
