<svg width="20" height="20" viewBox="0 0 20 20" fill="none" xmlns="http://www.w3.org/2000/svg">
<path d="M19.1711 5.67902L17.4232 7.42691C17.245 7.60511 16.9568 7.60511 16.7786 7.42691L12.57 3.21833C12.3918 3.04013 12.3918 2.75198 12.57 2.57377L14.3179 0.825888C15.027 0.116875 16.1796 0.116875 16.8924 0.825888L19.1711 3.10459C19.8839 3.8136 19.8839 4.96622 19.1711 5.67902ZM11.0686 4.07521L1.11202 14.0317L0.308213 18.6384C0.198258 19.2602 0.740448 19.7986 1.36226 19.6924L5.96898 18.8849L15.9256 8.92835C16.1038 8.75015 16.1038 8.46199 15.9256 8.28379L11.7169 4.07521C11.535 3.89701 11.2468 3.89701 11.0686 4.07521ZM4.99834 13.1786C4.78981 12.9701 4.78981 12.6364 4.99834 12.4279L10.8373 6.58899C11.0458 6.38045 11.3795 6.38045 11.588 6.58899C11.7966 6.79752 11.7966 7.13117 11.588 7.3397L5.74907 13.1786C5.54053 13.3872 5.20688 13.3872 4.99834 13.1786ZM3.6296 16.3673H5.44954V17.7436L3.004 18.1721L1.82483 16.9929L2.25327 14.5474H3.6296V16.3673Z" fill="white"/>
</svg>
